<?xml version="1.0"?>
<svg xmlns="http://www.w3.org/2000/svg" id="Layer_1" enable-background="new 0 0 512 512" height="512px" viewBox="0 0 512 512" width="512px"><g><g><path d="m498.704 206.14-78.172-135.374c-17.726-30.756-50.815-49.862-86.355-49.862h-156.354c-35.54 0-68.63 19.106-86.349 49.851l-78.183 135.395c-17.722 30.749-17.722 68.951.006 99.71l78.171 135.374c17.726 30.756 50.815 49.862 86.355 49.862h156.354c35.54 0 68.629-19.106 86.349-49.851l78.183-135.395c17.722-30.749 17.722-68.951-.005-99.71zm-387.305 113.06h-16.066c-8.284 0-15-6.716-15-15s6.716-15 15-15h16.066c5.019 0 9.101-4.083 9.101-9.1s-4.082-9.1-9.101-9.1c-21.56 0-39.1-17.54-39.1-39.1s17.54-39.1 39.1-39.1h16.067c8.284 0 15 6.716 15 15s-6.716 15-15 15h-16.067c-5.018 0-9.1 4.083-9.1 9.1s4.082 9.1 9.1 9.1c21.561 0 39.101 17.54 39.101 39.1s-17.54 39.1-39.101 39.1zm112.467-96.4h-9.1v81.4c0 8.284-6.716 15-15 15s-15-6.716-15-15v-81.4h-9.1c-8.284 0-15-6.716-15-15s6.716-15 15-15h48.199c8.284 0 15 6.716 15 15s-6.715 15-14.999 15zm111.401 53.283c0 23.774-19.342 43.117-43.116 43.117s-43.117-19.342-43.117-43.117v-40.167c0-23.774 19.343-43.117 43.117-43.117s43.116 19.342 43.116 43.117zm57.299 10.984h-9.1v17.133c0 8.284-6.716 15-15 15s-15-6.716-15-15v-96.4c0-8.284 6.716-15 15-15h24.1c25.989 0 47.134 21.144 47.134 47.133 0 25.99-21.144 47.134-47.134 47.134z" data-original="#000000" class="active-path" data-old_color="#000000" fill="#1273EB"/><path d="m292.15 222.8c-7.232 0-13.117 5.884-13.117 13.117v40.167c0 7.232 5.885 13.117 13.117 13.117s13.116-5.884 13.116-13.117v-40.167c.001-7.233-5.883-13.117-13.116-13.117z" data-original="#000000" class="active-path" data-old_color="#000000" fill="#1273EB"/><path d="m392.566 222.8h-9.1v34.267h9.1c9.447 0 17.134-7.686 17.134-17.134 0-9.447-7.686-17.133-17.134-17.133z" data-original="#000000" class="active-path" data-old_color="#000000" fill="#1273EB"/></g></g> </svg>
